<svg width="12" height="12" viewBox="0 0 12 12" fill="none" xmlns="http://www.w3.org/2000/svg">
<path d="M0 1C0 1.55228 0.447715 2 1 2H11C11.5523 2 12 1.55228 12 1C12 0.447716 11.5523 0 11 0H1C0.447715 0 0 0.447716 0 1Z" fill="white"/>
<path d="M0.0100392 6.00005C0.0155849 6.55231 0.467773 6.9955 1.02003 6.98996L7.01973 6.92971C7.57198 6.92416 8.01518 6.47198 8.00964 5.91972C8.00409 5.36746 7.5519 4.92427 6.99964 4.92981L0.999947 4.99006C0.44769 4.9956 0.00449349 5.44779 0.0100392 6.00005Z" fill="white"/>
<path d="M0 11C0 11.5523 0.447715 12 1 12H3C3.55228 12 4 11.5523 4 11C4 10.4477 3.55228 10 3 10H1C0.447715 10 0 10.4477 0 11Z" fill="white"/>
</svg>
